<?xml version="1.0" encoding="utf-8"?>
<!-- Generator: Adobe Illustrator 23.0.6, SVG Export Plug-In . SVG Version: 6.00 Build 0)  -->
<svg version="1.1" id="katman_1" xmlns="http://www.w3.org/2000/svg" xmlns:xlink="http://www.w3.org/1999/xlink" x="0px" y="0px"
	 viewBox="0 0 440.38 284.86" style="enable-background:new 0 0 440.38 284.86;" xml:space="preserve">
<style type="text/css">
	.st0{fill:none;stroke:#000000;stroke-width:4;stroke-miterlimit:10;}
	.st1{fill:#BA1826;}
	.st2{fill:none;stroke:#000000;stroke-width:4;}
	.st3{fill:none;stroke:#FFFFFF;stroke-width:3;stroke-miterlimit:10;}
	.st4{fill:none;stroke:#FFFFFF;stroke-width:3;}
	.st5{fill:none;stroke:#000000;stroke-width:1.4367;stroke-miterlimit:10;}
	.st6{fill:none;stroke:#FFFFFF;stroke-width:9;stroke-miterlimit:10;}
	.st7{fill:#E30613;}
	.st8{fill:#FFFFFF;}
</style>
<g>
	<g>
		<g>
			<g>
				<path class="st0" d="M360.41,398.28c-2.9,10.72-7.69,26.43-15.47,45.06c-9.59,22.95-16.27,38.58-23.87,38.42
					c-2.36-0.05-7.52-1.68-20.63-40.42c-6.08-17.96-10.15-32.92-12.7-43.06"/>
				<g>
					<path class="st1" d="M286.97,398.08c2.5-0.21,4.99-0.48,7.49-0.64l7.49-0.5l7.49-0.5c2.5-0.16,4.99-0.25,7.49-0.38l2.12-0.11
						l0.09,2.35l0.24,6.54l0.15,6.54c0.09,4.36,0.23,8.72,0.25,13.07l0.12,13.07l-0.04,13.07l-0.14-1.04
						c0.31,0.99,1.1,1.97,2.17,2.57c0.52,0.3,1.1,0.52,1.66,0.6c0.56,0.1,1.1,0.09,1.72-0.01c1.22-0.2,2.46-0.92,3.26-1.8
						c0.82-0.9,1.11-1.86,1.05-2.89l-0.02-0.37l0-0.07l0.15-6.17l0.23-6.17l0.47-12.34l0.64-12.33c0.19-4.11,0.51-8.22,0.76-12.33
						l0.13-2.14l1.96,0.09c2.29,0.1,4.59,0.22,6.88,0.38l6.88,0.46l6.88,0.46c2.29,0.16,4.59,0.4,6.88,0.59l0,0.4l-27.52,0.06
						l0.26-0.26l-0.74,49.37l0-0.05c0.23,2.14-0.52,4.35-1.96,5.92c-1.42,1.58-3.34,2.7-5.43,3.1c-2.09,0.43-4.34,0.04-6.16-1.07
						c-1.83-1.07-3.29-2.82-3.91-4.88l-0.02-0.05l0-0.06l0.73-52.28l0.26,0.27l-29.96-0.07L286.97,398.08z"/>
				</g>
			</g>
		</g>
	</g>
	<g>
		<path class="st2" d="M63.46,422.85h10.09v6.26h0.21c3.32-4.67,7.68-7,13.08-7c4.04,0.07,7.56,1.59,10.56,4.53l-7.37,10.27
			c-2.13-1.98-4.35-2.97-6.64-2.97c-2.59,0-4.8,0.99-6.64,2.96c-2.07,1.94-3.14,5.07-3.2,9.4v35.62H63.46V422.85z"/>
		<path class="st2" d="M131.78,476.35h-0.2c-0.93,2.01-2.39,3.49-4.36,4.44c-1.94,0.99-4.62,1.48-8.04,1.48
			c-5.61-0.07-9.94-1.82-12.97-5.23c-3.19-3.34-4.79-7.61-4.79-12.81c0-4.97,1.39-9.09,4.17-12.35c2.77-3.34,6.84-5.04,12.2-5.12
			h13.99v-6.23c0.07-5.22-3.37-7.76-10.32-7.61c-2.52,0-4.5,0.31-5.96,0.92c-1.52,0.72-2.72,1.94-3.59,3.66l-7.94-7.12
			c3.84-5.89,9.5-8.76,16.99-8.6c6.32-0.08,11.37,1.33,15.14,4.21c3.77,2.96,5.7,8.04,5.76,15.25v40.35h-10.09V476.35z
			 M131.78,456.54h-12.13c-5.89,0.15-8.8,2.53-8.73,7.12c0,2.01,0.76,3.72,2.28,5.13c1.46,1.56,3.87,2.34,7.23,2.34
			c4.24,0.07,7.23-0.51,8.98-1.76c1.59-1.25,2.38-4.1,2.38-8.55V456.54z"/>
		<path class="st2" d="M150.26,422.85h10.09v6.26h0.19c3.32-4.67,7.68-7,13.07-7c4.16,0,7.97,1.73,11.42,5.18
			c3.42,3.49,5.21,8.61,5.37,15.37v39.27h-10.09v-35.22c0-4.14-0.94-7.29-2.81-9.46c-1.84-2.2-4.21-3.31-7.12-3.31
			s-5.3,1.1-7.17,3.31c-1.9,2.17-2.86,5.32-2.86,9.46v35.22h-10.09V422.85z"/>
		<path class="st2" d="M228.58,475.6c-3.32,4.42-7.66,6.7-13.02,6.85c-3.03-0.07-5.63-0.81-7.79-2.22
			c-2.26-1.37-4.14-3.19-5.66-5.47c-1.39-1.86-2.31-4.38-2.76-7.58c-0.55-3.04-0.82-8.05-0.82-15.04c0-7.1,0.27-12.15,0.82-15.15
			c0.45-3.04,1.37-5.48,2.76-7.35c2.84-4.94,7.32-7.51,13.45-7.7c2.58,0,4.97,0.62,7.16,1.87c2.03,1.32,3.98,3.02,5.85,5.1v-30.13
			h10.09v82.99h-10.09V475.6z M218.65,433.77c-2.39,0-4.22,0.48-5.47,1.43c-1.39,1.03-2.41,2.44-3.05,4.23
			c-0.61,1.79-1.01,3.73-1.21,5.83c-0.19,2.25-0.29,4.55-0.29,6.91c0,2.24,0.1,4.44,0.29,6.57c0.2,2.25,0.6,4.26,1.21,6.05
			c0.65,1.71,1.66,3.12,3.05,4.23c1.26,1.07,3.08,1.6,5.47,1.6c2.39,0,4.28-0.57,5.67-1.71c1.39-1.1,2.34-2.55,2.86-4.34
			c0.65-1.79,1.08-3.79,1.31-6c0.06-2.17,0.1-4.3,0.1-6.39c0-2.28-0.03-4.47-0.1-6.57c-0.23-2.09-0.66-4.04-1.31-5.82
			c-0.52-1.79-1.47-3.23-2.86-4.34C222.93,434.33,221.04,433.77,218.65,433.77z"/>
		<path class="st2" d="M255.62,456.71c0,4.74,1.16,8.35,3.49,10.82c2.16,2.51,5.01,3.76,8.53,3.76c4.1,0,7.77-1.92,11-5.75
			l7.32,7.34c-5.14,6.45-11.17,9.64-18.11,9.56c-2.65,0-5.23-0.45-7.75-1.36c-1.26-0.49-2.49-1.16-3.68-1.99
			c-1.26-0.72-2.43-1.61-3.53-2.67c-2.13-2.2-3.86-5.27-5.18-9.22c-1.45-3.79-2.18-8.73-2.18-14.8c0-5.84,0.63-10.7,1.89-14.57
			c1.26-3.95,2.87-7.06,4.84-9.34c2-2.31,4.25-3.98,6.73-5.01c2.45-1.02,4.87-1.54,7.26-1.54c5.75,0.07,10.6,2.29,14.58,6.66
			c4.03,4.44,6.08,10.55,6.15,18.33v9.78H255.62z M276.88,446.93c-0.13-4.61-1.18-8.1-3.15-10.47c-1.94-2.25-4.43-3.37-7.48-3.37
			c-3.04,0-5.53,1.13-7.47,3.37c-1.91,2.37-2.96,5.85-3.15,10.47H276.88z"/>
	</g>
</g>
<g>
	<g>
		<g>
			<g>
				<path class="st3" d="M806.75,100.86c-2.9,10.72-7.69,26.43-15.47,45.06c-9.59,22.95-16.27,38.58-23.87,38.42
					c-2.36-0.05-7.52-1.68-20.63-40.42c-6.08-17.96-10.15-32.92-12.7-43.06"/>
				<g>
					<path class="st1" d="M733.31,100.66c2.5-0.21,4.99-0.48,7.49-0.64l7.49-0.5l7.49-0.5c2.5-0.16,4.99-0.25,7.49-0.38l2.12-0.11
						l0.09,2.35l0.24,6.54l0.15,6.54c0.09,4.36,0.23,8.72,0.25,13.07l0.12,13.07l-0.04,13.07l-0.14-1.04
						c0.31,0.99,1.1,1.97,2.17,2.57c0.52,0.3,1.1,0.52,1.66,0.6c0.56,0.1,1.1,0.09,1.72-0.01c1.22-0.2,2.46-0.92,3.26-1.8
						c0.82-0.9,1.11-1.86,1.05-2.89l-0.02-0.37l0-0.07l0.15-6.17l0.23-6.17l0.47-12.34l0.64-12.33c0.19-4.11,0.51-8.22,0.76-12.33
						l0.13-2.14l1.96,0.09c2.29,0.1,4.59,0.22,6.88,0.38l6.88,0.46l6.88,0.46c2.29,0.16,4.59,0.4,6.88,0.59l0,0.4l-27.52,0.06
						l0.26-0.26l-0.74,49.37l0-0.05c0.23,2.14-0.52,4.35-1.96,5.92c-1.42,1.58-3.34,2.7-5.43,3.1c-2.09,0.43-4.34,0.04-6.16-1.07
						c-1.83-1.07-3.29-2.82-3.91-4.88l-0.02-0.05l0-0.06l0.73-52.28l0.26,0.27l-29.96-0.07L733.31,100.66z"/>
				</g>
			</g>
		</g>
	</g>
	<g>
		<path class="st4" d="M509.8,125.43h10.09v6.26h0.21c3.32-4.67,7.68-7,13.08-7c4.04,0.07,7.56,1.59,10.56,4.53l-7.37,10.27
			c-2.13-1.98-4.35-2.97-6.64-2.97c-2.59,0-4.8,0.99-6.64,2.96c-2.07,1.94-3.14,5.07-3.2,9.4v35.62H509.8V125.43z"/>
		<path class="st4" d="M578.12,178.94h-0.2c-0.93,2.01-2.39,3.49-4.36,4.44c-1.94,0.99-4.62,1.48-8.04,1.48
			c-5.61-0.07-9.94-1.82-12.98-5.23c-3.19-3.34-4.79-7.61-4.79-12.81c0-4.97,1.39-9.09,4.17-12.35c2.77-3.34,6.84-5.04,12.2-5.12
			h13.99v-6.23c0.07-5.22-3.37-7.76-10.32-7.61c-2.52,0-4.5,0.31-5.96,0.92c-1.52,0.72-2.72,1.94-3.59,3.66l-7.94-7.12
			c3.84-5.89,9.5-8.76,16.99-8.6c6.32-0.08,11.37,1.33,15.14,4.21c3.77,2.96,5.7,8.04,5.76,15.25v40.35h-10.09V178.94z
			 M578.12,159.12h-12.13c-5.89,0.15-8.8,2.53-8.73,7.12c0,2.01,0.76,3.72,2.28,5.13c1.46,1.56,3.87,2.34,7.23,2.34
			c4.24,0.07,7.23-0.51,8.98-1.76c1.59-1.25,2.38-4.1,2.38-8.55V159.12z"/>
		<path class="st4" d="M596.59,125.43h10.09v6.26h0.19c3.32-4.67,7.68-7,13.07-7c4.16,0,7.97,1.73,11.42,5.18
			c3.42,3.49,5.21,8.61,5.37,15.37v39.27h-10.09v-35.22c0-4.14-0.94-7.29-2.81-9.46c-1.84-2.2-4.21-3.31-7.12-3.31
			s-5.3,1.1-7.17,3.31c-1.9,2.17-2.86,5.32-2.86,9.46v35.22h-10.09V125.43z"/>
		<path class="st4" d="M674.92,178.18c-3.32,4.42-7.66,6.7-13.02,6.85c-3.03-0.07-5.63-0.81-7.79-2.22
			c-2.26-1.37-4.14-3.19-5.66-5.47c-1.39-1.86-2.31-4.38-2.76-7.58c-0.55-3.04-0.82-8.05-0.82-15.04c0-7.1,0.27-12.15,0.82-15.15
			c0.45-3.04,1.37-5.48,2.76-7.35c2.84-4.94,7.32-7.51,13.45-7.7c2.58,0,4.97,0.62,7.16,1.87c2.03,1.32,3.98,3.02,5.85,5.1v-30.13
			h10.09v82.99h-10.09V178.18z M664.99,136.36c-2.39,0-4.22,0.48-5.47,1.43c-1.39,1.03-2.41,2.44-3.05,4.23
			c-0.61,1.79-1.01,3.73-1.21,5.83c-0.19,2.25-0.29,4.55-0.29,6.91c0,2.24,0.1,4.44,0.29,6.57c0.2,2.25,0.6,4.26,1.21,6.05
			c0.65,1.71,1.66,3.12,3.05,4.23c1.26,1.07,3.08,1.6,5.47,1.6s4.28-0.57,5.67-1.71c1.39-1.1,2.34-2.55,2.86-4.34
			c0.65-1.79,1.08-3.79,1.31-6c0.06-2.17,0.1-4.3,0.1-6.39c0-2.28-0.03-4.47-0.1-6.57c-0.23-2.09-0.66-4.04-1.31-5.82
			c-0.52-1.79-1.47-3.23-2.86-4.34C669.27,136.91,667.38,136.36,664.99,136.36z"/>
		<path class="st4" d="M701.96,159.3c0,4.74,1.16,8.35,3.49,10.82c2.16,2.51,5.01,3.76,8.53,3.76c4.1,0,7.77-1.92,11-5.75l7.32,7.34
			c-5.14,6.45-11.17,9.64-18.11,9.56c-2.65,0-5.23-0.45-7.75-1.36c-1.26-0.49-2.49-1.16-3.68-1.99c-1.26-0.72-2.43-1.61-3.53-2.67
			c-2.13-2.2-3.86-5.27-5.18-9.22c-1.45-3.79-2.18-8.73-2.18-14.8c0-5.84,0.63-10.7,1.89-14.57c1.26-3.95,2.87-7.06,4.84-9.34
			c2-2.31,4.25-3.98,6.73-5.01c2.45-1.02,4.87-1.54,7.26-1.54c5.75,0.07,10.6,2.29,14.58,6.66c4.03,4.44,6.08,10.55,6.15,18.33v9.78
			H701.96z M723.22,149.52c-0.13-4.61-1.18-8.1-3.15-10.47c-1.94-2.25-4.43-3.37-7.48-3.37c-3.04,0-5.53,1.13-7.47,3.37
			c-1.91,2.37-2.96,5.85-3.15,10.47H723.22z"/>
	</g>
</g>
<line class="st5" x1="0" y1="284.86" x2="418.07" y2="284.86"/>
<g>
	<g>
		<g>
			<g>
				<path class="st6" d="M357.43,112.01c-2.9,10.72-7.69,26.43-15.47,45.06c-9.59,22.95-16.27,38.58-23.87,38.42
					c-2.36-0.05-7.52-1.68-20.63-40.42c-6.08-17.96-10.15-32.92-12.7-43.06"/>
				<g>
					<path class="st7" d="M283.99,111.66c1.25-0.22,2.5-0.41,3.74-0.6c1.25-0.19,2.5-0.38,3.75-0.53c2.5-0.31,4.99-0.69,7.49-0.93
						l7.49-0.8c2.5-0.26,5-0.43,7.49-0.65l3.56-0.31l0.31,4.23l0.47,6.54l0.32,6.54c0.19,4.36,0.48,8.72,0.54,13.08l0.33,13.08
						c0.07,4.36,0.02,8.71,0.04,13.07l-0.25-1.82c0.11,0.27,0.43,0.73,0.99,1.01c0.26,0.14,0.54,0.24,0.78,0.26
						c0.22,0.04,0.4,0.05,0.72,0.01c0.63-0.06,1.41-0.52,1.79-0.92c0.21-0.2,0.3-0.38,0.35-0.49c0.05-0.12,0.07-0.19,0.08-0.35
						l-0.04-0.78l0.19-6.17l0.33-6.17l0.67-12.33l0.96-12.33l0.24-3.08l0.31-3.08l0.62-6.16l0.39-3.85l3.26,0.26
						c2.29,0.18,4.59,0.38,6.88,0.64l6.88,0.73c4.59,0.57,9.17,1.14,13.76,1.93l0,0.7l-27.52,0.18l0.53-0.53l-0.73,49.37l0-0.08
						c0.25,2.22-0.54,4.53-2.03,6.15c-1.47,1.63-3.44,2.78-5.6,3.19c-2.16,0.45-4.5,0.04-6.37-1.11c-1.89-1.11-3.4-2.92-4.04-5.06
						l-0.03-0.1l0-0.1l0.75-52.28l0.54,0.55c-9.99-0.01-19.97-0.13-29.96-0.19L283.99,111.66z"/>
				</g>
			</g>
		</g>
	</g>
	<g>
		<g>
			<g>
				<path class="st8" d="M69.85,130.8h10.09v6.85h0.21c3.32-5.11,7.68-7.66,13.08-7.66c4.04,0.08,7.56,1.74,10.56,4.96l-7.37,11.24
					c-2.13-2.17-4.35-3.25-6.64-3.25c-2.59,0-4.8,1.08-6.64,3.24c-2.07,2.13-3.14,5.55-3.2,10.3v38.99H69.85V130.8z"/>
				<path class="st8" d="M136.5,189.74h-0.2c-0.93,2.2-2.39,3.82-4.36,4.86c-1.94,1.08-4.62,1.62-8.04,1.62
					c-5.61-0.08-9.94-1.99-12.97-5.73c-3.19-3.66-4.79-8.33-4.79-14.02c0-5.44,1.39-9.95,4.17-13.52c2.77-3.65,6.84-5.52,12.2-5.61
					h13.99v-6.83c0.07-5.71-3.37-8.49-10.32-8.33c-2.52,0-4.5,0.33-5.96,1c-1.52,0.79-2.72,2.13-3.59,4.01l-7.94-7.79
					c3.84-6.45,9.5-9.59,16.99-9.42c6.32-0.09,11.37,1.45,15.14,4.61c3.77,3.24,5.7,8.81,5.76,16.7v44.18H136.5V189.74z
					 M136.5,168.05h-12.13c-5.89,0.16-8.8,2.76-8.73,7.79c0,2.2,0.76,4.08,2.28,5.61c1.46,1.71,3.87,2.56,7.23,2.56
					c4.24,0.08,7.23-0.56,8.98-1.93c1.59-1.37,2.38-4.49,2.38-9.36V168.05z"/>
				<path class="st8" d="M153.11,131.17h10.09v6.85h0.19c3.32-5.11,7.68-7.66,13.07-7.66c4.16,0,7.97,1.89,11.42,5.67
					c3.42,3.82,5.21,9.43,5.37,16.82v42.99h-10.09v-38.56c0-4.53-0.94-7.98-2.81-10.36c-1.84-2.41-4.21-3.62-7.12-3.62
					s-5.3,1.21-7.17,3.62c-1.9,2.37-2.86,5.83-2.86,10.36v38.56h-10.09V131.17z"/>
				<path class="st8" d="M227.39,188.72c-3.32,4.83-7.66,7.33-13.02,7.5c-3.03-0.08-5.63-0.89-7.79-2.43
					c-2.26-1.5-4.14-3.49-5.66-5.99c-1.39-2.04-2.31-4.8-2.76-8.29c-0.55-3.33-0.82-8.81-0.82-16.46c0-7.78,0.27-13.31,0.82-16.59
					c0.45-3.33,1.37-6,2.76-8.04c2.84-5.41,7.32-8.22,13.45-8.43c2.58,0,4.97,0.68,7.16,2.04c2.03,1.45,3.98,3.31,5.85,5.58v-32.99
					h10.09v90.85h-10.09V188.72z M217.46,142.94c-2.39,0-4.22,0.52-5.47,1.56c-1.39,1.13-2.41,2.67-3.05,4.63
					c-0.61,1.96-1.01,4.09-1.21,6.38c-0.19,2.46-0.29,4.98-0.29,7.56c0,2.46,0.1,4.86,0.29,7.19c0.2,2.46,0.6,4.67,1.21,6.62
					c0.65,1.88,1.66,3.42,3.05,4.63c1.26,1.17,3.08,1.75,5.47,1.75s4.28-0.63,5.67-1.88c1.39-1.21,2.34-2.79,2.86-4.75
					c0.65-1.96,1.08-4.15,1.31-6.57c0.06-2.37,0.1-4.71,0.1-7c0-2.5-0.03-4.9-0.1-7.19c-0.23-2.29-0.66-4.42-1.31-6.38
					c-0.52-1.96-1.47-3.54-2.86-4.75C221.74,143.54,219.85,142.94,217.46,142.94z"/>
				<path class="st8" d="M251.99,167.68c0,5.19,1.16,9.14,3.49,11.84c2.16,2.75,5.01,4.12,8.53,4.12c4.1,0,7.77-2.1,11-6.3
					l7.32,8.04c-5.14,7.06-11.17,10.55-18.11,10.46c-2.65,0-5.23-0.5-7.75-1.49c-1.26-0.54-2.49-1.27-3.68-2.18
					c-1.26-0.79-2.43-1.76-3.53-2.93c-2.13-2.41-3.86-5.77-5.18-10.09c-1.45-4.15-2.18-9.55-2.18-16.2c0-6.4,0.63-11.71,1.89-15.95
					c1.26-4.32,2.87-7.73,4.84-10.22c2-2.53,4.25-4.36,6.73-5.48c2.45-1.12,4.87-1.68,7.26-1.68c5.75,0.08,10.6,2.51,14.58,7.29
					c4.03,4.86,6.08,11.55,6.15,20.07v10.71H251.99z M273.25,156.97c-0.13-5.05-1.18-8.87-3.15-11.46
					c-1.94-2.46-4.43-3.69-7.48-3.69c-3.04,0-5.53,1.23-7.47,3.69c-1.91,2.59-2.96,6.41-3.15,11.46H273.25z"/>
			</g>
		</g>
	</g>
</g>
</svg>
