<svg id="katman_1" data-name="katman 1" xmlns="http://www.w3.org/2000/svg" viewBox="0 0 440.38 284.86"><defs><style>.cls-1,.cls-2{fill:none;stroke-miterlimit:10;}.cls-1{stroke:#1d1d1b;stroke-width:1.44px;}.cls-2{stroke:#fff;stroke-width:5px;}.cls-3{fill:#e30613;}.cls-4{fill:#fff;}</style></defs><title>randeu</title><line class="cls-1" y1="284.86" x2="418.07" y2="284.86"/><path class="cls-2" d="M356.66,112a362.46,362.46,0,0,1-15.47,45.06c-9.59,22.95-16.27,38.58-23.87,38.43-2.36-.05-7.52-1.68-20.63-40.42-6.07-18-10.14-32.92-12.7-43.07"/><path class="cls-3" d="M283.22,111.75c2.5-.26,5-.59,7.49-.81s5-.49,7.49-.66l7.49-.58c2.5-.18,5-.31,7.5-.46l2.61-.17.15,3,.31,6.54.21,6.54c.12,4.36.32,8.72.34,13.08l.19,13.07c0,4.36,0,8.72,0,13.07l-.18-1.3a3.76,3.76,0,0,0,1.77,2.05,3.9,3.9,0,0,0,1.37.49,4,4,0,0,0,1.38,0,5.08,5.08,0,0,0,2.78-1.51,2.88,2.88,0,0,0,.84-2.21l0-.56.16-6.17.27-6.16.54-12.34.74-12.33c.21-4.11.6-8.22.9-12.33l.19-2.71,2.42.14c2.29.13,4.58.27,6.88.46l6.88.53,6.88.63c2.29.22,4.59.5,6.88.75v.5l-27.52.07.32-.32-.72,49.37v-.06a7.74,7.74,0,0,1-2,6,10,10,0,0,1-5.48,3.13,8.92,8.92,0,0,1-10.18-6l0-.07v-.07l.76-52.28.33.33-30-.08Z"/><path class="cls-4" d="M69.85,130.8H79.94v6.85h.21q5-7.67,13.08-7.66a14.46,14.46,0,0,1,10.57,5l-7.37,11.24c-2.14-2.17-4.35-3.25-6.65-3.25a8.45,8.45,0,0,0-6.64,3.24q-3.11,3.19-3.2,10.3v39H69.85Z"/><path class="cls-4" d="M136.5,189.74h-.19A9.46,9.46,0,0,1,132,194.6a16.6,16.6,0,0,1-8,1.62q-8.43-.12-13-5.73-4.78-5.49-4.79-14,0-8.16,4.16-13.52t12.2-5.61h14v-6.82q.1-8.58-10.31-8.33a14.66,14.66,0,0,0-6,1,8.2,8.2,0,0,0-3.58,4l-8-7.79q5.76-9.67,17-9.42,9.48-.13,15.15,4.61t5.75,16.69v44.18H136.5Zm0-21.69H124.37c-5.88.16-8.79,2.77-8.73,7.79a7.7,7.7,0,0,0,2.28,5.62q2.19,2.55,7.23,2.55,6.36.12,9-1.93,2.38-2.06,2.38-9.35Z"/><path class="cls-4" d="M153.11,131.17H163.2V138h.2q5-7.67,13.06-7.66c4.17,0,8,1.89,11.43,5.67s5.2,9.43,5.37,16.82v43h-10.1V157.29q0-6.79-2.81-10.36a8.57,8.57,0,0,0-7.12-3.62,8.71,8.71,0,0,0-7.17,3.62q-2.85,3.56-2.86,10.36v38.55H153.11Z"/><path class="cls-4" d="M227.39,188.72q-5,7.25-13,7.5a13.75,13.75,0,0,1-7.79-2.43,19.64,19.64,0,0,1-8.42-14.28,114.11,114.11,0,0,1-.82-16.46q0-11.67.82-16.59a18.59,18.59,0,0,1,2.76-8.05A14.79,14.79,0,0,1,214.37,130a13.36,13.36,0,0,1,7.17,2,31,31,0,0,1,5.85,5.58v-33h10.1v90.85h-10.1Zm-9.93-45.78A8.39,8.39,0,0,0,212,144.5a9.74,9.74,0,0,0-3.06,4.63,30.34,30.34,0,0,0-1.21,6.38q-.28,3.69-.29,7.56,0,3.69.29,7.19a30.73,30.73,0,0,0,1.21,6.63,10.7,10.7,0,0,0,3.06,4.63,7.8,7.8,0,0,0,5.47,1.75,8.17,8.17,0,0,0,5.67-1.88,9.26,9.26,0,0,0,2.86-4.75,30.45,30.45,0,0,0,1.31-6.57c.06-2.37.09-4.71.09-7,0-2.5,0-4.89-.09-7.19A30.28,30.28,0,0,0,226,149.5a9.3,9.3,0,0,0-2.86-4.75A8.34,8.34,0,0,0,217.46,142.94Z"/><path class="cls-4" d="M252,167.68q0,7.78,3.49,11.84a10.31,10.31,0,0,0,8.53,4.12q6.15,0,11-6.3l7.32,8q-7.71,10.59-18.11,10.46a20.81,20.81,0,0,1-7.75-1.49,17.28,17.28,0,0,1-3.68-2.18,18.25,18.25,0,0,1-3.54-2.93,27.31,27.31,0,0,1-5.18-10.09q-2.17-6.24-2.18-16.2A56.86,56.86,0,0,1,243.78,147a30.13,30.13,0,0,1,4.84-10.22,18,18,0,0,1,6.74-5.48,17.23,17.23,0,0,1,7.26-1.69q8.61.12,14.57,7.29T283.34,157v10.71ZM273.25,157q-.19-7.58-3.16-11.46a9.42,9.42,0,0,0-14.95,0Q252.27,149.39,252,157Z"/></svg>