<svg id="katman_1" data-name="katman 1" xmlns="http://www.w3.org/2000/svg" viewBox="0 0 394.08 279.74"><defs><style>.cls-1,.cls-3{fill:none;stroke:#fff;stroke-width:3px;}.cls-1{stroke-miterlimit:10;}.cls-2{fill:#ba1826;}</style></defs><title>randeu</title><path class="cls-1" d="M358.47,98.3A360.79,360.79,0,0,1,343,143.36c-9.58,22.95-16.27,38.58-23.87,38.42-2.36-.05-7.51-1.68-20.62-40.42-6.08-18-10.15-32.92-12.7-43.06"/><path class="cls-2" d="M285,98.1c2.5-.21,5-.48,7.49-.64L300,97l7.49-.5c2.49-.15,5-.25,7.49-.38l2.12-.1.09,2.34.23,6.54.15,6.54c.09,4.36.24,8.72.25,13.07l.12,13.08,0,13.07-.15-1a4.72,4.72,0,0,0,2.17,2.57,4.82,4.82,0,0,0,1.66.6,5,5,0,0,0,1.72,0,6,6,0,0,0,3.26-1.79,3.73,3.73,0,0,0,1.05-2.9l0-.37v-.08l.16-6.17.23-6.16.47-12.34.64-12.34c.19-4.11.51-8.22.76-12.33l.13-2.14,2,.09c2.29.1,4.59.22,6.88.39l6.88.45,6.88.46c2.3.16,4.59.4,6.88.59v.4L332,98.56l.26-.26-.75,49.37v0a7.67,7.67,0,0,1-2,5.92,9.92,9.92,0,0,1-5.44,3.1,8.81,8.81,0,0,1-10.06-6l0-.05v-.06l.73-52.27.26.26L285,98.5Z"/><path class="cls-3" d="M61.52,122.87H71.61v6.26h.22q5-7,13.08-7a15,15,0,0,1,10.56,4.53L88.1,136.93a9.73,9.73,0,0,0-6.64-3,8.76,8.76,0,0,0-6.64,3q-3.1,2.93-3.21,9.41V182H61.52Z"/><path class="cls-3" d="M129.84,176.38h-.19a8.91,8.91,0,0,1-4.36,4.43,17.89,17.89,0,0,1-8,1.48q-8.43-.1-13-5.23a17.79,17.79,0,0,1-4.79-12.81,18.44,18.44,0,0,1,4.16-12.35q4.17-5,12.2-5.12h14v-6.23q.1-7.83-10.31-7.61a15.74,15.74,0,0,0-6,.92,7.71,7.71,0,0,0-3.58,3.66L102,130.4q5.76-8.84,17-8.61,9.48-.12,15.15,4.21t5.75,15.26v40.35H129.84Zm0-19.82H117.71q-8.82.23-8.73,7.12a6.74,6.74,0,0,0,2.28,5.13c1.46,1.56,3.87,2.33,7.23,2.33q6.36.12,9-1.76,2.39-1.87,2.38-8.55Z"/><path class="cls-3" d="M148.32,122.87h10.09v6.26h.19q5-7,13.07-7,6.24,0,11.42,5.18t5.37,15.37V182H178.37V146.73q0-6.21-2.81-9.46a8.83,8.83,0,0,0-7.12-3.31,9,9,0,0,0-7.17,3.31q-2.86,3.25-2.86,9.46V182H148.32Z"/><path class="cls-3" d="M226.65,175.62a16.2,16.2,0,0,1-13,6.85,14.76,14.76,0,0,1-7.79-2.22,17.79,17.79,0,0,1-5.66-5.47,16.34,16.34,0,0,1-2.76-7.58,95,95,0,0,1-.83-15,95.43,95.43,0,0,1,.83-15.16,16.07,16.07,0,0,1,2.76-7.35q4.24-7.41,13.45-7.69a14.29,14.29,0,0,1,7.16,1.86,29.79,29.79,0,0,1,5.86,5.1V98.8h10.09v83H226.65Zm-9.93-41.82a9,9,0,0,0-5.48,1.43,8.77,8.77,0,0,0-3.05,4.22,24.59,24.59,0,0,0-1.21,5.83q-.3,3.38-.3,6.91c0,2.24.1,4.44.3,6.57a24.93,24.93,0,0,0,1.21,6.05,9.63,9.63,0,0,0,3.05,4.23,8.31,8.31,0,0,0,5.48,1.6,8.68,8.68,0,0,0,5.67-1.72,8.33,8.33,0,0,0,2.85-4.34,24.72,24.72,0,0,0,1.31-6c.06-2.16.1-4.3.1-6.39,0-2.28,0-4.47-.1-6.57a24.6,24.6,0,0,0-1.31-5.83,8.41,8.41,0,0,0-2.85-4.34A8.9,8.9,0,0,0,216.72,133.8Z"/><path class="cls-3" d="M253.68,156.74q0,7.11,3.49,10.82a10.76,10.76,0,0,0,8.53,3.76q6.17,0,11-5.76l7.32,7.35q-7.69,9.68-18.11,9.56a22.55,22.55,0,0,1-7.74-1.37,17.68,17.68,0,0,1-3.69-2,18.12,18.12,0,0,1-3.53-2.67,24.11,24.11,0,0,1-5.18-9.23q-2.18-5.69-2.18-14.79a47.72,47.72,0,0,1,1.89-14.57,26.46,26.46,0,0,1,4.84-9.34,17.88,17.88,0,0,1,6.73-5,18.86,18.86,0,0,1,7.26-1.53,19.31,19.31,0,0,1,14.58,6.65q6,6.67,6.14,18.34v9.78ZM274.94,147c-.12-4.62-1.18-8.11-3.15-10.47a10,10,0,0,0-15,0Q254,140,253.68,147Z"/></svg>