<svg id="katman_1" data-name="katman 1" xmlns="http://www.w3.org/2000/svg" viewBox="0 0 423.82 304.03"><defs><style>.cls-1{fill:none;stroke:#55bfcd;stroke-miterlimit:10;stroke-width:7.58px;}.cls-2{fill:#d11c21;}</style></defs><title>randeumavikırmızı</title><path class="cls-1" d="M358.44,125.19c-7.06,21.68-13.76,40.55-19.39,54.39C325,214.15,316.81,226.91,308,226.73a4.21,4.21,0,0,1-.95-.1c-12.34-2.55-18.13-23.19-26-49.65-3.61-12.16-9.15-30.37-16.62-53.1"/><path class="cls-2" d="M261.41,123.5c1.64-.24,3.27-.43,4.9-.63s3.27-.41,4.9-.57c3.27-.32,6.53-.72,9.8-1l9.8-.84,9.79-.66,4-.27.26,4.58.46,8,.31,8c.19,5.36.49,10.73.54,16.08l.3,16.08c.1,5.36.06,10.72.09,16.08l-.31-2.1a3.15,3.15,0,0,0,.56.91,4.9,4.9,0,0,0,2.72,1.43,5.33,5.33,0,0,0,1.54,0,6,6,0,0,0,3.11-1.52,2.93,2.93,0,0,0,.62-.89,1.72,1.72,0,0,0,.15-.65l-.05-.9c.18-5.06.33-10.11.61-15.16l.74-15.15c.24-5,.67-10.09,1-15.14l.52-7.57.68-7.57.39-4.49,3.89.3,9.86.77,9.86.94c3.29.29,6.58.73,9.86,1.09,1.65.17,3.29.39,4.93.61s3.29.43,4.93.69v.76c-13.16,0-26.31.06-39.47,0l.6-.57-1,60.63v-.1a9.06,9.06,0,0,1-.51,4.16,10.54,10.54,0,0,1-2.24,3.5,13.6,13.6,0,0,1-7.19,3.73,12,12,0,0,1-8-1.36,11,11,0,0,1-5.26-6.19l0-.11v-.12l.93-64.28.59.6c-13.06-.08-26.11-.29-39.16-.42Z"/><path class="cls-2" d="M67.51,162.05H77.6v6.85h.22q5-7.65,13.08-7.66a14.45,14.45,0,0,1,10.56,5l-7.37,11.24c-2.13-2.17-4.35-3.25-6.64-3.25a8.45,8.45,0,0,0-6.65,3.24q-3.1,3.18-3.2,10.29v39H67.51Z"/><path class="cls-2" d="M128.44,221h-.2a9.38,9.38,0,0,1-4.35,4.85,16.53,16.53,0,0,1-8,1.62q-8.41-.12-13-5.72-4.8-5.49-4.8-14,0-8.16,4.17-13.52c2.77-3.66,6.84-5.52,12.2-5.61h14v-6.83q.09-8.57-10.32-8.32a14.44,14.44,0,0,0-6,1,8.18,8.18,0,0,0-3.59,4l-7.94-7.8q5.76-9.66,17-9.42,9.48-.12,15.14,4.61t5.76,16.7v44.18H128.44Zm0-21.69H116.31q-8.84.24-8.73,7.79a7.67,7.67,0,0,0,2.28,5.61q2.17,2.56,7.22,2.56,6.36.12,9-1.93,2.38-2.06,2.38-9.36Z"/><path class="cls-2" d="M142.87,162.05H153v6.85h.19q5-7.65,13.07-7.66,6.24,0,11.42,5.67T183,183.74v43H172.92V188.17q0-6.79-2.81-10.36A8.57,8.57,0,0,0,163,174.2a8.72,8.72,0,0,0-7.18,3.61Q153,181.38,153,188.17v38.56H142.87Z"/><path class="cls-2" d="M217.15,220q-5,7.25-13,7.49a13.72,13.72,0,0,1-7.79-2.43,18.57,18.57,0,0,1-5.66-6,19,19,0,0,1-2.76-8.3,114,114,0,0,1-.82-16.46,114.7,114.7,0,0,1,.82-16.59,18.59,18.59,0,0,1,2.76-8,14.8,14.8,0,0,1,13.45-8.43,13.25,13.25,0,0,1,7.16,2,30.47,30.47,0,0,1,5.86,5.58v-33h10.09v90.85H217.15Zm-9.93-45.78a8.42,8.42,0,0,0-5.48,1.56,9.65,9.65,0,0,0-3.05,4.63,29.62,29.62,0,0,0-1.21,6.37q-.28,3.69-.29,7.57,0,3.69.29,7.19a29.93,29.93,0,0,0,1.21,6.62,10.48,10.48,0,0,0,3.05,4.63,7.78,7.78,0,0,0,5.48,1.75,8.21,8.21,0,0,0,5.67-1.87,9.27,9.27,0,0,0,2.85-4.76,29.08,29.08,0,0,0,1.31-6.56c.07-2.37.1-4.71.1-7q0-3.75-.1-7.19a29.07,29.07,0,0,0-1.31-6.38,9.24,9.24,0,0,0-2.85-4.75A8.34,8.34,0,0,0,207.22,174.2Z"/><path class="cls-2" d="M240.15,199.31q0,7.78,3.49,11.84a10.33,10.33,0,0,0,8.53,4.12q6.15,0,11-6.3l7.32,8q-7.69,10.59-18.11,10.46a20.81,20.81,0,0,1-7.75-1.49A17.53,17.53,0,0,1,241,223.8a18.2,18.2,0,0,1-3.53-2.93,27,27,0,0,1-5.18-10.09q-2.19-6.24-2.18-16.2a56.86,56.86,0,0,1,1.89-16,29.76,29.76,0,0,1,4.84-10.22,17.93,17.93,0,0,1,6.73-5.48,17.23,17.23,0,0,1,7.26-1.69q8.62.12,14.58,7.29t6.14,20.07v10.71Zm21.26-10.71q-.2-7.57-3.15-11.46a9.43,9.43,0,0,0-15,0q-2.87,3.88-3.15,11.46Z"/></svg>