<svg id="katman_1" data-name="katman 1" xmlns="http://www.w3.org/2000/svg" viewBox="0 0 440.38 290.19"><defs><style>.cls-1,.cls-3{fill:none;stroke:#1d1d1b;stroke-width:4px;}.cls-1{stroke-miterlimit:10;}.cls-2{fill:#ba1826;}</style></defs><title>randeu</title><path class="cls-1" d="M360.41,108.09a362.46,362.46,0,0,1-15.47,45.06c-9.59,22.95-16.27,38.58-23.87,38.42-2.36,0-7.52-1.68-20.63-40.42-6.07-18-10.14-32.92-12.7-43.06"/><path class="cls-2" d="M287,107.89c2.5-.21,5-.48,7.49-.64l7.49-.5,7.49-.5c2.5-.15,5-.25,7.5-.37l2.12-.11.08,2.35.24,6.53.15,6.54c.09,4.36.23,8.72.25,13.08l.12,13.07,0,13.07-.14-1a4.68,4.68,0,0,0,2.17,2.57,4.75,4.75,0,0,0,1.66.6,4.53,4.53,0,0,0,1.72,0,5.93,5.93,0,0,0,3.26-1.79,3.77,3.77,0,0,0,1.05-2.9l0-.37v-.08l.15-6.17.24-6.16.47-12.34.64-12.33c.18-4.12.51-8.23.76-12.34l.13-2.14,2,.09c2.29.11,4.58.22,6.88.39l6.88.45,6.88.46c2.29.16,4.59.4,6.88.59v.4l-27.52.06.26-.26-.75,49.37v-.05a7.68,7.68,0,0,1-2,5.92,9.86,9.86,0,0,1-5.43,3.1,8.82,8.82,0,0,1-10.06-6l0-.06v-.06l.73-52.27.26.26-30-.06Z"/><path class="cls-3" d="M63.46,132.66H73.55v6.26h.21q5-7,13.09-7a15,15,0,0,1,10.56,4.54L90,146.72a9.73,9.73,0,0,0-6.64-3,8.76,8.76,0,0,0-6.65,3q-3.1,2.91-3.2,9.4v35.62H63.46Z"/><path class="cls-3" d="M131.78,186.17h-.19a9,9,0,0,1-4.36,4.43,17.94,17.94,0,0,1-8,1.48q-8.41-.11-13-5.23A17.75,17.75,0,0,1,101.43,174a18.4,18.4,0,0,1,4.16-12.35q4.17-5,12.2-5.12h14v-6.23q.1-7.83-10.31-7.61a15.74,15.74,0,0,0-6,.92,7.73,7.73,0,0,0-3.59,3.66L104,140.19q5.76-8.83,17-8.61,9.48-.12,15.14,4.21t5.76,15.26V191.4H131.78Zm0-19.82H119.65q-8.84.22-8.73,7.12a6.74,6.74,0,0,0,2.28,5.13c1.46,1.56,3.87,2.33,7.23,2.33,4.23.08,7.23-.51,9-1.76q2.39-1.87,2.38-8.55Z"/><path class="cls-3" d="M150.26,132.66h10.09v6.26h.19q5-7,13.07-7,6.24,0,11.42,5.18t5.37,15.37v39.27H180.31V156.52q0-6.21-2.81-9.46a8.87,8.87,0,0,0-7.12-3.31,9,9,0,0,0-7.18,3.31q-2.85,3.25-2.85,9.46v35.22H150.26Z"/><path class="cls-3" d="M228.58,185.41a16.17,16.17,0,0,1-13,6.85,14.8,14.8,0,0,1-7.8-2.22,18,18,0,0,1-5.66-5.47,16.34,16.34,0,0,1-2.76-7.58,96.55,96.55,0,0,1-.82-15,97,97,0,0,1,.82-15.16,16.12,16.12,0,0,1,2.76-7.35q4.26-7.41,13.46-7.69a14.32,14.32,0,0,1,7.16,1.86,30,30,0,0,1,5.85,5.1V108.59h10.1v83h-10.1Zm-9.93-41.82a9,9,0,0,0-5.47,1.43,8.86,8.86,0,0,0-3.06,4.22,25.63,25.63,0,0,0-1.21,5.83q-.28,3.38-.29,6.91c0,2.24.1,4.44.29,6.57a25.92,25.92,0,0,0,1.21,6,9.73,9.73,0,0,0,3.06,4.23,8.28,8.28,0,0,0,5.47,1.6,8.68,8.68,0,0,0,5.67-1.72,8.35,8.35,0,0,0,2.86-4.34,25.7,25.7,0,0,0,1.31-6c.06-2.16.09-4.3.09-6.39q0-3.42-.09-6.57a25.41,25.41,0,0,0-1.31-5.82,8.41,8.41,0,0,0-2.86-4.35A8.9,8.9,0,0,0,218.65,143.59Z"/><path class="cls-3" d="M255.62,166.53q0,7.11,3.49,10.82a10.71,10.71,0,0,0,8.53,3.76q6.15,0,11-5.75L286,182.7q-7.69,9.68-18.11,9.56a22.64,22.64,0,0,1-7.75-1.37,17.4,17.4,0,0,1-3.68-2,17.83,17.83,0,0,1-3.53-2.67,24.11,24.11,0,0,1-5.18-9.23q-2.19-5.69-2.18-14.79a47.72,47.72,0,0,1,1.89-14.57,26.3,26.3,0,0,1,4.84-9.34,18,18,0,0,1,6.73-5,18.79,18.79,0,0,1,7.26-1.53,19.3,19.3,0,0,1,14.58,6.66q6,6.66,6.14,18.33v9.78Zm21.26-9.78q-.19-6.93-3.15-10.47a10,10,0,0,0-15,0q-2.88,3.54-3.16,10.47Z"/></svg>