<svg id="katman_1" data-name="katman 1" xmlns="http://www.w3.org/2000/svg" viewBox="0 0 424.95 277.67"><defs><style>.cls-1{fill:none;stroke:#d11c21;stroke-miterlimit:10;stroke-width:7.58px;}.cls-2{fill:#55bfcd;}</style></defs><title>randeumavikırmızı</title><path class="cls-1" d="M351.35,84.29c.25.85-.33,1.26-.74,2.82-5.52,21.09-9.84,30.22-18.65,52.11-13.94,34.62-22.24,47.32-31.06,47.15a4.8,4.8,0,0,1-.95-.1c-12.34-2.56-17.11-23.51-26-49.65-7.48-22-15-41.12-16.62-53.1"/><path class="cls-2" d="M253.3,83.14c1.68-.24,3.35-.44,5-.64s3.35-.4,5-.56c3.35-.32,6.7-.73,10-1l10.05-.83,10.05-.66,4-.26.26,4.57.46,8,.32,8c.18,5.36.48,10.72.53,16.08l.3,16.08c.1,5.36.06,10.72.09,16.07l-.31-2.09a2.86,2.86,0,0,0,.57.9,4.28,4.28,0,0,0,1.2.92,4.52,4.52,0,0,0,1.51.52,5,5,0,0,0,1.54,0A6,6,0,0,0,307,146.8a3,3,0,0,0,.63-.89,1.55,1.55,0,0,0,.14-.65l-.05-.91c.17-5,.32-10.1.6-15.15l.75-15.15c.24-5,.67-10.1,1-15.14l.52-7.58.67-7.57.4-4.48,3.89.3q5,.39,9.88.85l9.82,1.1c3.27.34,6.54.82,9.8,1.18s6.53.84,9.78,1l.08.75c-3.31.3-6.59.27-9.88.28l-9.84-.09c-6.56-.08-13.12-.22-19.67-.26l.59-.58-1,60.64v-.1a8.93,8.93,0,0,1-.5,4.16,10.42,10.42,0,0,1-2.25,3.49,13.44,13.44,0,0,1-7.19,3.74,12,12,0,0,1-8-1.36,11,11,0,0,1-5.27-6.19l0-.11V148l.94-64.28.58.59c-13.39-.07-26.77-.28-40.16-.41Z"/><path class="cls-2" d="M60.42,121.69H70.51v6.85h.21q5-7.66,13.09-7.66a14.44,14.44,0,0,1,10.56,5L87,137.08c-2.14-2.16-4.35-3.25-6.64-3.25a8.43,8.43,0,0,0-6.65,3.25q-3.1,3.18-3.2,10.29v39H60.42Z"/><path class="cls-2" d="M121.35,180.64h-.2a9.4,9.4,0,0,1-4.36,4.85,16.57,16.57,0,0,1-8,1.62q-8.43-.12-13-5.73Q91,175.9,91,167.36q0-8.15,4.17-13.52t12.19-5.6h14v-6.83q.09-8.57-10.32-8.32a14.52,14.52,0,0,0-6,1,8.18,8.18,0,0,0-3.58,4l-7.94-7.79q5.76-9.68,17-9.42,9.48-.12,15.15,4.61t5.76,16.7v44.18H121.35Zm0-21.69H109.22q-8.84.24-8.74,7.79a7.69,7.69,0,0,0,2.28,5.61q2.19,2.57,7.23,2.56c4.24.08,7.23-.56,9-1.94,1.58-1.37,2.38-4.48,2.38-9.35Z"/><path class="cls-2" d="M135.77,121.69h10.1v6.85h.19q5-7.66,13.07-7.66,6.24,0,11.42,5.67t5.37,16.82v43H165.83V147.81q0-6.8-2.81-10.36a8.59,8.59,0,0,0-7.12-3.62,8.73,8.73,0,0,0-7.18,3.62q-2.85,3.57-2.86,10.36v38.56H135.77Z"/><path class="cls-2" d="M210.06,179.61q-5,7.26-13,7.5a13.72,13.72,0,0,1-7.79-2.43,18.6,18.6,0,0,1-5.66-6,18.9,18.9,0,0,1-2.76-8.29,113.73,113.73,0,0,1-.83-16.46,114.22,114.22,0,0,1,.83-16.59,18.59,18.59,0,0,1,2.76-8A14.78,14.78,0,0,1,197,120.88a13.32,13.32,0,0,1,7.16,2,30.78,30.78,0,0,1,5.86,5.58v-33h10.09v90.85H210.06Zm-9.93-45.78a8.42,8.42,0,0,0-5.48,1.57A9.57,9.57,0,0,0,191.6,140a29.11,29.11,0,0,0-1.21,6.38q-.3,3.69-.3,7.57,0,3.67.3,7.19a29.47,29.47,0,0,0,1.21,6.62,10.48,10.48,0,0,0,3.05,4.63,7.78,7.78,0,0,0,5.48,1.75,8.17,8.17,0,0,0,5.67-1.88,9.2,9.2,0,0,0,2.85-4.75A29.19,29.19,0,0,0,210,161c.06-2.38.1-4.71.1-7,0-2.5,0-4.9-.1-7.2a29,29,0,0,0-1.31-6.37,9.24,9.24,0,0,0-2.85-4.75A8.34,8.34,0,0,0,200.13,133.83Z"/><path class="cls-2" d="M233.06,158.94q0,7.8,3.49,11.85a10.33,10.33,0,0,0,8.53,4.12q6.15,0,11-6.3l7.32,8q-7.71,10.59-18.11,10.46a21,21,0,0,1-7.75-1.49,17.53,17.53,0,0,1-3.68-2.18,18.2,18.2,0,0,1-3.53-2.93,27,27,0,0,1-5.18-10.1q-2.19-6.22-2.18-16.2a57.37,57.37,0,0,1,1.88-16A30.22,30.22,0,0,1,229.69,128a18.23,18.23,0,0,1,6.74-5.48,17.36,17.36,0,0,1,7.26-1.68q8.63.12,14.57,7.29t6.15,20.07v10.7Zm21.26-10.7q-.19-7.58-3.15-11.46a9.41,9.41,0,0,0-15,0q-2.86,3.89-3.15,11.46Z"/></svg>